<?xml version="1.0" standalone="no"?>
<!DOCTYPE svg PUBLIC "-//W3C//DTD SVG 20010904//EN"
 "http://www.w3.org/TR/2001/REC-SVG-20010904/DTD/svg10.dtd">
<svg version="1.0" xmlns="http://www.w3.org/2000/svg"
 width="495.000000pt" height="485.000000pt" viewBox="0 0 495.000000 485.000000"
 preserveAspectRatio="xMidYMid meet">

<g transform="translate(0.000000,485.000000) scale(0.100000,-0.100000)"
fill="#000000" stroke="none">
<path d="M2215 4665 c-249 -31 -486 -104 -726 -225 -656 -331 -1101 -946
-1216 -1682 -24 -155 -24 -478 1 -638 61 -404 223 -776 474 -1094 68 -87 256
-275 337 -338 354 -276 726 -433 1145 -483 679 -81 1340 144 1843 627 455 437
711 1099 668 1726 -32 462 -168 843 -429 1202 -369 507 -952 843 -1574 910
-130 13 -387 11 -523 -5z m640 -39 c408 -75 764 -238 1055 -483 244 -205 433
-444 569 -718 166 -332 233 -621 234 -1000 1 -204 -13 -330 -58 -512 -177
-722 -711 -1315 -1410 -1567 -413 -148 -904 -167 -1330 -51 -256 70 -507 191
-720 348 -489 359 -799 872 -891 1477 -25 162 -25 494 0 645 69 419 233 776
504 1104 337 405 864 695 1392 765 152 20 526 15 655 -8z"/>
<path d="M2318 4463 c-32 -5 -44 -29 -17 -36 17 -5 19 -14 19 -85 0 -43 3
-107 6 -141 6 -57 5 -63 -14 -68 -12 -3 -19 -10 -15 -19 4 -10 25 -14 83 -14
85 0 109 15 58 37 -24 10 -28 18 -28 52 0 39 0 40 44 46 84 13 126 55 126 126
0 50 -26 87 -68 98 -36 11 -139 12 -194 4z m152 -53 c29 -29 28 -103 -2 -124
-12 -9 -32 -16 -44 -16 -20 0 -21 6 -23 80 -2 80 -2 80 23 80 15 0 35 -9 46
-20z"/>
<path d="M2687 4454 c-13 -13 -7 -24 18 -34 l26 -10 -66 -129 c-42 -83 -73
-132 -85 -136 -33 -11 -23 -34 18 -40 20 -3 47 -8 59 -11 26 -5 39 12 23 31
-6 8 -10 24 -8 37 3 20 8 23 43 21 70 -4 85 -11 85 -39 0 -13 -7 -27 -15 -30
-15 -6 -21 -34 -7 -34 28 0 139 -23 146 -30 5 -5 14 -6 21 -4 7 3 30 -5 52
-19 51 -32 82 -38 126 -26 46 12 67 42 67 96 0 36 -7 50 -50 99 -27 31 -52 65
-55 75 -8 26 12 59 36 59 28 0 69 -44 69 -73 0 -14 7 -28 16 -31 20 -8 18 -10
33 33 16 50 14 71 -8 71 -11 0 -35 9 -53 19 -80 46 -161 24 -177 -50 -10 -46
5 -84 57 -141 21 -24 42 -51 45 -61 10 -27 -10 -57 -38 -57 -42 0 -67 33 -77
105 -2 12 -12 21 -25 23 -19 3 -23 -3 -29 -37 -4 -23 -10 -41 -14 -41 -19 0
-30 36 -56 186 l-27 162 -41 6 c-23 4 -55 9 -71 12 -17 3 -34 2 -38 -2z m99
-179 l7 -68 -24 6 c-13 4 -34 7 -46 7 -29 0 -29 4 8 86 36 79 44 74 55 -31z"/>
<path d="M1970 4400 c-49 -9 -94 -37 -115 -73 -36 -60 -16 -187 38 -245 70
-76 188 -67 245 18 21 31 23 44 20 106 -7 106 -44 162 -129 192 -13 5 -40 6
-59 2z m33 -50 c30 -24 63 -106 73 -179 8 -65 -13 -104 -54 -99 -47 5 -87 86
-99 199 -5 49 -3 59 16 78 26 26 32 26 64 1z"/>
<path d="M1671 4296 c-6 -7 -26 -17 -44 -20 -85 -16 -143 -113 -119 -203 24
-88 86 -150 160 -160 48 -6 127 26 168 68 l28 29 -23 40 c-16 28 -21 49 -16
69 9 40 -10 43 -75 12 -38 -18 -56 -33 -58 -48 -3 -17 1 -20 17 -16 26 7 46
-9 59 -47 10 -26 8 -30 -24 -45 -30 -14 -36 -14 -63 -1 -44 23 -95 119 -96
180 0 45 3 51 31 68 29 17 32 17 68 -2 64 -32 84 -9 44 50 -27 39 -41 46 -57
26z"/>
<path d="M3322 4253 c-47 -61 -54 -79 -36 -94 12 -10 20 -7 47 19 32 31 87 45
87 22 0 -6 -18 -42 -40 -81 -22 -39 -40 -74 -40 -78 0 -3 -12 -24 -26 -45 -22
-32 -30 -37 -55 -34 -22 3 -29 0 -29 -11 0 -15 132 -91 158 -91 17 0 15 15 -3
30 -22 18 -19 34 23 108 20 37 49 88 62 115 14 26 28 47 32 47 4 0 15 -11 24
-25 13 -20 14 -30 4 -59 -12 -37 -7 -56 14 -56 13 0 28 27 52 92 l13 38 -79
40 c-44 22 -97 50 -117 63 -21 13 -43 26 -50 30 -6 4 -24 -9 -41 -30z"/>
<path d="M1304 4087 c-28 -23 -72 -56 -97 -74 -47 -32 -55 -60 -18 -59 13 1
46 -35 100 -108 45 -60 81 -113 81 -118 0 -18 -34 -21 -84 -8 -28 7 -65 13
-83 11 l-31 -2 10 35 c14 43 -7 81 -55 101 -48 20 -90 -2 -169 -86 -67 -73
-76 -99 -33 -96 35 3 215 -160 212 -192 -3 -39 18 -35 64 14 50 53 55 69 18
70 -14 0 -42 14 -63 33 -31 27 -36 36 -26 47 17 20 44 19 91 -6 59 -29 97 -28
126 5 12 15 71 63 130 107 60 44 109 84 111 89 3 9 -35 90 -43 90 -3 0 -14 -5
-24 -12 -14 -9 -18 -20 -14 -48 5 -34 2 -40 -31 -65 l-36 -27 -23 28 c-43 55
-46 59 -47 70 0 6 11 17 25 24 19 10 28 10 38 1 11 -9 17 -8 27 4 10 13 8 22
-15 55 -15 22 -30 40 -34 40 -17 -1 -31 -18 -26 -32 4 -10 -3 -25 -17 -38
l-23 -21 -32 38 c-18 21 -33 43 -33 50 0 23 58 55 89 48 19 -4 32 -1 42 11 12
14 10 19 -16 40 -17 13 -32 24 -35 23 -3 0 -28 -19 -56 -42z m-203 -306 c34
-34 37 -60 10 -92 l-20 -24 -51 50 -51 50 26 23 c34 29 51 28 86 -7z"/>
<path d="M3664 4093 c-6 -2 -9 -14 -7 -26 6 -33 -150 -227 -183 -227 -13 0
-24 -6 -24 -13 0 -13 192 -177 207 -177 4 0 25 15 45 34 36 33 36 35 18 51
-14 13 -23 14 -39 6 -31 -17 -57 -13 -90 15 l-31 26 37 47 c36 46 39 47 61 33
14 -9 22 -24 22 -42 0 -44 24 -43 59 3 35 46 30 60 -20 61 -51 1 -58 26 -19
74 l32 41 30 -22 c16 -12 31 -33 34 -47 10 -45 13 -50 33 -50 24 0 53 71 32
78 -12 4 -72 48 -146 107 -22 18 -45 31 -51 28z"/>
<path d="M2295 3924 c-145 -21 -324 -77 -460 -143 -302 -148 -525 -370 -679
-680 -186 -370 -204 -810 -49 -1215 126 -332 406 -638 728 -796 94 -46 160
-70 310 -113 109 -31 111 -31 350 -31 260 -1 319 8 494 69 483 170 858 586
965 1070 36 166 40 197 40 360 0 189 -19 311 -75 480 -122 371 -405 692 -753
855 -232 109 -372 141 -641 145 -110 2 -213 1 -230 -1z m520 -73 c129 -30 206
-57 322 -112 146 -70 269 -156 386 -271 56 -56 106 -101 110 -99 5 1 5 -3 2
-10 -4 -6 4 -23 17 -37 41 -45 119 -172 158 -257 178 -387 185 -802 20 -1210
-36 -91 -124 -241 -178 -305 l-30 -35 -17 60 c-87 296 -171 471 -283 596 l-54
59 62 420 c34 231 66 435 71 454 11 40 51 76 84 76 12 0 31 -10 43 -23 18 -20
21 -31 16 -68 -7 -52 8 -72 53 -67 41 5 61 63 44 127 -37 138 -200 175 -295
67 -30 -35 -34 -52 -71 -296 -9 -58 -25 -159 -36 -225 -10 -66 -26 -173 -34
-237 -8 -64 -18 -123 -21 -131 -4 -12 -24 -3 -87 39 -104 68 -107 71 -107 94
0 10 -10 26 -21 34 -22 15 -21 16 48 90 85 91 156 224 179 335 15 75 20 255 8
308 -11 50 -44 144 -66 187 -33 65 -121 176 -136 171 -7 -3 -11 -1 -8 4 8 12
-78 83 -139 115 -244 130 -536 124 -752 -17 -159 -102 -265 -245 -319 -427
-15 -51 -19 -96 -19 -205 0 -128 3 -147 27 -214 54 -145 155 -286 244 -341 19
-12 34 -25 34 -30 0 -5 -29 -25 -65 -45 -156 -87 -334 -252 -431 -399 -71
-106 -140 -254 -177 -376 l-34 -112 -30 39 c-137 179 -236 422 -273 670 -24
168 -5 428 45 591 93 310 254 551 495 741 189 149 404 242 650 281 41 6 82 13
90 15 8 2 98 2 200 0 141 -3 206 -8 275 -24z m-187 -97 c42 -9 80 -18 85 -21
4 -2 -4 -18 -18 -35 -22 -26 -25 -39 -25 -102 l0 -73 -62 13 c-93 20 -165 16
-255 -11 -22 -7 -23 -5 -23 62 0 58 -4 76 -25 107 -14 20 -25 39 -25 41 0 3
81 21 130 29 61 9 147 5 218 -10z m-356 -61 c26 -25 28 -32 28 -109 l0 -82
-45 -26 c-54 -32 -127 -120 -150 -181 l-18 -45 -101 0 c-91 0 -104 2 -131 24
l-29 24 41 83 c70 140 162 235 296 303 38 20 72 36 75 36 3 0 19 -12 34 -27z
m568 -18 c86 -48 155 -109 207 -179 52 -70 105 -179 98 -198 -13 -33 -61 -48
-152 -48 l-89 0 -13 38 c-24 64 -78 140 -128 176 -26 20 -53 36 -60 36 -7 0
-11 25 -12 72 0 55 4 79 20 105 27 43 50 42 129 -2z m-347 -391 c142 -46 177
-81 212 -219 9 -34 28 -72 45 -92 44 -49 37 -103 -13 -103 -15 0 -18 5 -15 24
7 34 -8 56 -17 25 -10 -38 -98 -229 -104 -229 -3 1 -15 15 -26 33 -13 20 -36
37 -65 48 -40 15 -45 20 -42 46 3 26 2 26 -10 10 -10 -13 -24 -18 -43 -15 -27
3 -30 7 -32 43 -10 160 -15 188 -39 211 -16 16 -35 24 -59 24 -41 0 -95 -24
-96 -43 0 -6 -5 -1 -10 13 -24 59 19 145 102 205 26 19 55 48 64 64 l15 30 26
-24 c14 -13 63 -36 107 -51z m683 -55 c12 -51 6 -254 -9 -312 -9 -33 -18 -61
-20 -64 -3 -2 -20 5 -38 16 -26 16 -51 21 -107 21 l-72 0 2 103 c1 56 -1 132
-6 170 l-8 67 94 0 c76 0 97 4 118 20 27 21 37 16 46 -21z m-1321 11 c26 -16
49 -20 116 -19 46 1 89 1 95 0 7 -1 9 -32 6 -101 -4 -88 1 -136 24 -212 5 -16
-4 -18 -98 -18 -86 0 -108 -3 -137 -21 -18 -11 -37 -17 -41 -12 -16 16 -30
117 -30 208 0 84 16 195 28 195 3 0 19 -9 37 -20z m478 -212 c14 -16 17 -39
17 -118 0 -76 3 -100 15 -110 14 -12 12 -16 -14 -41 -17 -15 -33 -39 -37 -53
-3 -14 -9 -26 -13 -26 -4 0 -28 46 -53 103 -32 70 -48 121 -52 162 -6 68 -3
76 39 98 36 20 73 14 98 -15z m774 -183 c13 -9 23 -23 23 -32 0 -29 -70 -142
-127 -203 -57 -62 -73 -72 -73 -43 0 9 -20 36 -46 60 l-45 44 35 71 c20 39 36
81 36 94 0 20 6 23 43 27 63 7 128 -1 154 -18z m-953 -49 c46 -81 88 -199 84
-234 -3 -22 -13 -30 -66 -50 -57 -22 -67 -23 -90 -11 -78 40 -242 248 -242
307 0 38 43 51 167 52 l111 0 36 -64z m588 -88 c-3 -107 -1 -142 13 -178 31
-83 31 -95 -7 -124 -62 -47 -188 -98 -254 -104 -91 -7 -193 26 -250 81 l-44
42 55 56 54 57 26 -44 c14 -24 37 -51 50 -60 21 -14 26 -14 47 0 20 13 25 13
42 0 30 -21 43 -18 89 25 86 79 140 185 167 324 6 31 12 57 13 57 2 0 1 -60
-1 -132z m-229 1 c41 -22 49 -61 22 -103 l-16 -24 -29 29 c-36 37 -55 36 -90
-1 l-27 -29 -12 25 c-16 36 -14 58 10 88 17 22 28 26 70 26 28 0 60 -5 72 -11z
m347 -284 c16 -8 28 -21 25 -28 -36 -115 -54 -167 -87 -247 -22 -52 -52 -140
-67 -195 -28 -99 -40 -115 -70 -96 -12 8 -10 24 9 107 31 137 143 474 156 474
3 0 18 -7 34 -15z m-550 -134 c42 -19 76 -26 143 -29 81 -4 87 -6 87 -26 0
-11 -5 -77 -10 -146 -9 -122 -4 -172 12 -115 4 16 10 81 14 145 4 63 8 121 9
128 1 12 165 98 165 87 0 -3 -7 -22 -14 -42 -13 -33 -76 -261 -106 -380 l-11
-43 -103 0 -104 0 -20 48 c-41 98 -40 126 8 137 33 7 55 29 45 45 -4 6 -26 20
-50 31 -26 12 -52 34 -64 54 -10 18 -40 45 -66 60 -93 55 -205 23 -268 -77 -9
-15 -40 -42 -70 -62 -29 -19 -63 -47 -76 -62 l-24 -27 22 -18 c11 -9 39 -20
61 -24 l40 -7 0 -52 c0 -29 -5 -78 -11 -108 -11 -52 -14 -56 -57 -78 -26 -12
-63 -35 -83 -51 -20 -16 -39 -29 -43 -29 -3 0 -7 53 -8 118 l-3 117 -17 -55
c-10 -30 -19 -95 -22 -144 -5 -115 -18 -131 -75 -93 -68 45 -86 29 -26 -21
l36 -29 -45 -43 c-25 -24 -52 -47 -60 -52 -24 -13 -20 -48 5 -48 11 0 27 -7
35 -15 22 -22 56 -18 98 10 20 13 36 22 36 19 0 -3 -15 -24 -33 -47 -19 -23
-37 -50 -41 -60 -5 -17 -13 -13 -65 32 -32 28 -64 57 -71 66 -7 8 -17 12 -24
8 -6 -3 -8 -2 -3 2 4 5 -5 21 -19 36 l-27 28 23 81 c30 105 135 321 204 419
92 131 278 297 433 387 l88 51 50 -50 c28 -28 75 -62 105 -76z m657 -80 c-7
-88 -36 -214 -67 -288 -69 -163 -85 -140 -38 52 18 74 85 290 95 308 12 21 15
-1 10 -72z m137 -46 c-8 -76 -90 -447 -110 -493 -11 -27 -17 -33 -26 -24 -22
22 56 421 109 560 22 57 35 36 27 -43z m-857 39 c45 -34 68 -90 65 -164 -1
-54 3 -76 28 -128 33 -71 32 -91 -8 -84 -24 5 -26 4 -13 -11 7 -10 20 -17 27
-17 8 0 11 -6 8 -15 -7 -17 -50 -20 -59 -4 -4 5 -12 8 -18 6 -16 -5 -157 60
-184 86 -27 24 -29 17 -8 -23 16 -31 64 -64 110 -76 17 -4 49 -16 72 -26 51
-23 87 -16 115 22 23 31 58 30 58 -2 0 -11 14 -27 35 -39 19 -12 32 -25 29
-30 -13 -22 11 -51 70 -84 94 -52 101 -63 86 -126 -7 -30 -25 -65 -41 -83
l-29 -31 6 33 c8 39 -17 69 -66 78 -25 6 -41 -2 -99 -44 -38 -28 -80 -56 -92
-63 -24 -13 -142 -19 -153 -8 -4 4 9 22 28 41 38 38 54 82 39 107 -17 27 -41
24 -91 -12 -81 -59 -108 -69 -188 -68 -99 1 -112 -5 -201 -90 -18 -17 -37 -28
-42 -24 -6 3 -11 2 -11 -3 0 -9 -60 -26 -67 -19 -2 2 28 42 66 88 75 92 133
131 211 144 51 9 90 31 90 51 0 19 -9 18 -55 -6 -22 -11 -51 -20 -65 -20 -15
0 -49 -12 -76 -26 -111 -59 -141 -76 -173 -99 -36 -27 -61 -32 -61 -14 0 6 -7
9 -15 5 -32 -12 -12 14 58 73 39 33 101 85 136 115 35 31 83 64 107 75 58 28
72 53 84 147 13 101 16 110 57 166 38 53 28 76 -15 35 -15 -14 -38 -28 -52
-31 -32 -8 -85 7 -85 23 0 16 119 90 158 98 28 6 38 23 12 23 -8 0 -15 4 -15
8 0 10 37 45 65 61 31 18 130 8 162 -15z m1043 -314 c-18 -111 -95 -330 -123
-347 -14 -8 -1 70 30 187 40 148 85 304 92 315 12 20 12 -81 1 -155z m-573
-92 c103 -43 133 -65 180 -138 23 -36 58 -86 78 -112 21 -29 35 -59 35 -76 0
-31 -27 -119 -39 -127 -12 -7 -113 34 -149 62 -18 13 -46 49 -63 79 -31 55
-99 120 -176 168 -40 25 -55 46 -33 46 21 0 117 -43 147 -66 17 -13 40 -24 50
-24 14 1 10 7 -16 30 -41 35 -115 72 -193 96 -63 19 -78 44 -28 44 39 0 160
-42 216 -75 43 -25 80 -33 69 -15 -10 16 -90 60 -147 81 -41 15 -190 49 -214
49 -2 0 -4 5 -4 11 0 9 30 10 108 5 85 -6 121 -14 179 -38z m654 -169 c-6 -18
-23 -48 -37 -66 -14 -19 -24 -35 -23 -36 2 -1 29 -15 59 -30 59 -29 106 -64
98 -72 -2 -3 -31 6 -64 20 -32 13 -85 32 -117 40 l-57 16 70 77 c38 42 70 81
70 86 0 5 3 7 6 3 4 -3 1 -20 -5 -38z m-1151 -148 c0 -20 -48 -67 -99 -97 -57
-34 -23 -52 99 -53 91 0 132 14 221 75 38 26 72 44 76 40 4 -3 -20 -33 -52
-66 -46 -46 -75 -66 -130 -87 -66 -26 -68 -28 -37 -31 48 -5 126 37 195 103
32 31 63 55 69 53 13 -5 -76 -122 -117 -153 -17 -14 -58 -34 -91 -45 -77 -27
-95 -45 -34 -36 71 11 131 43 183 98 60 64 63 38 4 -34 -60 -74 -142 -114
-263 -128 -94 -10 -219 -1 -298 22 l-38 12 6 58 c11 106 50 158 156 206 36 17
81 42 100 56 42 30 50 32 50 7z m880 -46 c0 -25 -35 -209 -65 -341 -3 -13 -17
-24 -40 -31 -39 -12 -39 -12 -26 50 6 23 17 76 26 117 18 78 51 197 66 238 8
20 12 22 24 12 8 -7 15 -27 15 -45z m81 -12 c13 -33 31 -230 23 -254 -4 -15
-101 -65 -109 -57 -2 2 2 33 10 68 8 36 21 106 30 155 24 131 27 136 46 88z
m-1241 -48 c-28 -30 -58 -112 -66 -180 -4 -30 -11 -55 -16 -55 -12 0 -101 48
-157 85 l-42 28 45 18 c26 9 71 40 102 68 31 28 68 54 82 57 15 3 32 7 37 8
28 8 35 -7 15 -29z m1370 -21 c12 -24 20 -54 17 -66 -3 -18 -10 -9 -35 44 -37
77 -37 79 -17 72 8 -3 24 -25 35 -50z m-501 -165 c-22 -110 -51 -187 -73 -193
-30 -8 -32 0 -13 54 22 63 88 202 93 197 3 -2 -1 -28 -7 -58z m-293 -110 c-9
-85 -13 -99 -33 -99 -11 0 -14 7 -10 23 3 12 11 50 18 85 18 85 33 80 25 -9z
m-50 39 c-2 -7 -10 -42 -17 -77 l-12 -63 -41 6 c-22 4 -41 8 -42 9 -2 1 4 28
13 59 14 48 20 57 47 66 44 14 56 14 52 0z m-133 -75 c-9 -27 -17 -49 -18 -51
-4 -5 -180 37 -255 62 l-75 24 105 -5 c58 -2 132 0 165 5 102 16 96 19 78 -35z"/>
<path d="M2505 3134 c-66 -16 -87 -35 -98 -94 -5 -23 -4 -23 6 -6 32 54 54 66
116 66 33 0 72 -5 87 -10 37 -15 41 -6 7 18 -30 22 -85 33 -118 26z"/>
<path d="M2510 3063 c-38 -14 -69 -60 -31 -48 12 3 21 0 25 -10 8 -23 47 -19
53 6 4 16 12 20 29 16 26 -5 31 5 12 20 -17 13 -69 22 -88 16z"/>
<path d="M2254 3016 c-17 -8 -34 -21 -37 -30 -7 -17 8 -22 18 -6 4 6 14 1 25
-12 15 -19 20 -20 34 -9 9 7 16 20 16 28 0 8 5 11 10 8 6 -3 10 -2 10 4 0 9
-32 32 -42 31 -2 -1 -17 -7 -34 -14z"/>
<path d="M2422 2693 c-34 -7 -20 -28 17 -27 42 2 64 12 56 24 -6 10 -30 11
-73 3z"/>
<path d="M2143 2033 c-22 -8 -14 -21 22 -33 19 -6 35 -17 35 -23 0 -8 4 -7 9
2 13 20 4 36 -25 50 -14 6 -26 11 -27 10 -1 0 -8 -3 -14 -6z"/>
<path d="M3935 3862 c-5 -4 -10 -16 -10 -28 0 -14 -32 -49 -100 -108 -79 -69
-105 -86 -122 -81 -34 8 -28 -14 18 -67 44 -52 73 -63 64 -25 -8 32 68 105 91
86 21 -17 17 -38 -16 -94 -36 -61 -37 -85 -5 -123 26 -32 145 -229 145 -242 0
-4 7 -13 14 -20 8 -6 22 -34 31 -61 17 -51 41 -65 47 -26 2 15 11 23 30 25 23
3 28 -2 43 -48 22 -67 15 -84 -30 -76 -43 8 -45 -3 -13 -86 24 -61 44 -74 53
-35 4 14 58 64 135 126 l128 103 -18 52 c-28 80 -31 86 -46 86 -9 0 -14 -11
-14 -29 l0 -30 -127 -3 c-137 -3 -173 -1 -173 11 0 4 16 13 35 20 37 13 40 18
25 41 -6 10 -23 13 -54 11 -43 -2 -46 0 -76 41 l-31 43 185 3 c102 1 186 6
186 10 0 7 -115 208 -126 221 -5 5 -74 -16 -93 -28 -10 -6 -10 -13 -3 -28 8
-15 19 -18 45 -15 26 3 40 -2 57 -20 54 -58 54 -58 -92 -58 -212 0 -226 6
-192 73 9 17 17 48 17 69 0 37 9 49 22 28 11 -17 71 -11 98 10 37 29 43 71 18
123 -24 50 -132 160 -146 149z m88 -134 c17 -36 11 -57 -25 -82 -30 -21 -58
-20 -88 5 l-24 21 49 43 c28 25 55 44 61 45 6 0 18 -14 27 -32z m312 -629
c-11 -11 -41 -35 -67 -54 l-48 -35 -15 36 c-25 60 -23 63 58 67 39 1 76 4 81
5 5 1 1 -7 -9 -19z"/>
<path d="M834 3586 c-34 -15 -65 -51 -113 -134 -33 -56 -33 -73 -1 -65 32 8
242 -125 250 -159 12 -47 25 -34 107 101 55 91 41 169 -33 190 -25 7 -39 5
-61 -9 l-29 -18 -12 42 c-8 30 -19 46 -37 54 -32 15 -32 15 -71 -2z m48 -83
c20 -18 23 -54 8 -83 -10 -18 -13 -18 -60 12 -54 34 -58 42 -33 70 20 22 61
23 85 1z m138 -73 c34 -18 42 -46 25 -85 l-15 -36 -38 23 c-21 13 -49 30 -61
38 l-23 15 22 28 c23 28 57 35 90 17z"/>
<path d="M642 3253 c-48 -31 -67 -69 -67 -135 0 -55 21 -89 84 -133 36 -25 54
-30 115 -33 67 -4 75 -2 104 23 44 37 62 75 62 130 0 56 -20 92 -66 124 -82
57 -168 66 -232 24z m158 -87 c30 -15 62 -32 71 -39 44 -34 41 -89 -6 -101
-52 -13 -202 47 -238 96 -19 26 -19 28 -2 54 16 25 21 26 69 21 28 -3 76 -17
106 -31z"/>
<path d="M575 2925 c-71 -25 -102 -81 -120 -217 -6 -47 9 -75 25 -48 12 20
266 -26 291 -53 9 -10 22 -16 27 -13 12 7 42 132 42 172 0 15 -9 47 -21 70
-35 74 -161 120 -244 89z m165 -108 c37 -18 47 -29 54 -60 6 -23 6 -41 0 -47
-12 -12 -289 44 -288 59 1 6 2 18 3 26 0 8 16 25 34 36 26 17 42 19 92 15 33
-4 80 -16 105 -29z"/>
<path d="M4488 2772 c-5 -16 -24 -20 -143 -32 -131 -12 -139 -12 -152 6 -22
30 -34 4 -27 -59 7 -58 26 -77 39 -38 6 19 23 24 150 36 l60 6 -35 -31 c-19
-18 -66 -57 -105 -88 -38 -31 -73 -61 -77 -66 -11 -16 -10 -66 2 -66 6 0 6 -9
0 -26 -13 -34 -13 -101 1 -109 6 -4 16 1 23 10 9 12 19 15 34 11 23 -8 28 -35
16 -95 -6 -26 -11 -31 -35 -31 -19 0 -29 5 -29 15 0 24 -20 17 -30 -11 -11
-29 -14 -134 -3 -134 3 0 15 8 25 17 10 9 88 32 176 52 l157 36 9 62 c5 34 6
69 3 77 -8 19 -27 21 -27 4 -1 -40 -17 -37 -145 20 -120 55 -159 81 -143 98 4
3 69 13 145 21 126 13 138 13 150 -2 20 -29 32 -8 26 48 -7 66 -19 79 -42 49
-14 -20 -31 -26 -92 -33 -41 -4 -81 -8 -89 -8 -17 0 7 21 117 105 79 60 88 76
78 134 -7 42 -29 54 -37 22z m-85 -498 c37 -14 66 -28 63 -31 -5 -6 -122 -32
-143 -33 -7 0 -13 10 -13 23 0 29 11 67 18 67 4 0 37 -12 75 -26z"/>
<path d="M465 2471 c-24 -5 -30 -11 -28 -31 1 -14 3 -80 4 -147 4 -138 -1
-133 97 -133 48 0 52 2 52 24 0 20 -6 24 -42 29 -40 5 -68 27 -68 52 0 12 124
25 232 25 45 0 50 -2 62 -31 11 -26 14 -28 25 -15 17 21 4 186 -15 186 -8 0
-14 -9 -14 -20 0 -29 -29 -37 -168 -42 l-123 -5 3 26 c2 21 11 29 51 41 32 10
46 20 45 30 -3 17 -63 23 -113 11z"/>
<path d="M610 2109 c-85 -21 -120 -23 -120 -9 0 6 -7 10 -15 10 -18 0 -19 -16
-4 -75 12 -46 39 -70 39 -34 0 24 2 25 132 54 109 25 138 22 158 -14 15 -29 2
-70 -29 -85 -14 -8 -70 -24 -124 -36 -79 -18 -101 -19 -113 -9 -23 19 -35 -1
-25 -41 5 -19 12 -47 15 -62 7 -33 19 -35 45 -9 10 10 53 26 97 36 109 23 159
48 178 89 29 61 13 140 -35 180 -37 32 -88 33 -199 5z"/>
<path d="M4106 1884 c-10 -37 2 -51 119 -136 l70 -50 -70 6 c-38 3 -96 9 -127
12 -54 6 -58 5 -67 -17 -17 -47 -13 -51 176 -194 40 -31 73 -64 75 -75 2 -12
8 -21 13 -22 12 -1 54 79 54 105 1 18 -24 24 -34 7 -3 -5 -12 -10 -19 -10 -14
0 -180 120 -174 125 2 2 55 -3 118 -11 106 -13 116 -13 128 3 31 43 16 66
-101 148 -37 26 -66 49 -64 51 2 2 50 -1 106 -8 93 -11 104 -14 112 -35 14
-36 25 -28 54 41 29 68 27 94 -4 74 -15 -9 -55 -9 -168 0 -197 16 -190 17
-197 -14z"/>
<path d="M889 1803 c-1 -5 -2 -19 -2 -32 -2 -22 -18 -32 -122 -78 -66 -29
-125 -51 -132 -49 -24 10 -13 45 22 72 35 26 44 47 25 59 -10 6 -57 -15 -102
-47 l-27 -19 19 -37 c34 -66 79 -171 86 -197 3 -14 10 -27 14 -30 4 -3 36 5
69 17 51 18 61 26 59 43 -2 12 -10 19 -18 17 -8 -2 -30 -4 -48 -5 -35 -1 -73
27 -57 42 6 5 64 32 130 61 l120 52 16 -21 c24 -29 43 -27 35 3 -18 72 -83
182 -87 149z"/>
<path d="M3947 1534 c-40 -55 -39 -72 6 -70 44 2 46 -23 7 -78 -30 -41 -34
-44 -57 -33 -16 7 -23 17 -20 29 9 34 -29 19 -56 -21 -14 -22 -53 -65 -86 -96
-59 -58 -71 -90 -27 -79 15 4 31 -5 59 -34 37 -38 37 -39 18 -56 -19 -17 -22
-17 -73 7 -92 43 -90 43 -153 -12 -32 -28 -66 -53 -76 -56 -28 -9 -25 -43 4
-38 19 4 30 -9 79 -89 31 -51 55 -95 53 -97 -2 -2 -50 31 -107 72 -89 65 -105
74 -117 62 -15 -15 -15 -19 19 -222 4 -23 3 -40 -1 -38 -4 3 -30 44 -59 91
-37 63 -50 93 -46 110 10 37 -10 37 -69 0 -56 -37 -69 -56 -37 -56 24 0 36
-15 104 -125 65 -106 70 -119 55 -134 -9 -9 -9 -14 2 -20 16 -10 111 45 111
64 0 19 -41 218 -46 227 -3 4 -1 8 5 8 5 0 13 -5 17 -11 12 -21 166 -129 182
-129 22 0 112 57 112 70 0 6 -11 10 -24 10 -21 0 -36 18 -90 109 -81 134 -82
137 -58 150 15 8 34 5 77 -10 31 -11 65 -17 76 -14 22 7 22 7 8 -34 -9 -26 -8
-36 7 -59 25 -38 45 -51 77 -52 41 0 75 21 142 89 63 64 74 88 40 83 -15 -2
-49 27 -119 98 -83 84 -97 102 -86 115 18 22 31 20 196 -31 l149 -45 25 30
c42 49 60 86 50 101 -7 12 -12 11 -29 -4 -19 -17 -21 -15 -95 83 -86 115 -98
135 -94 158 6 34 -22 22 -55 -23z m131 -193 c24 -29 41 -55 38 -58 -6 -6 -134
36 -140 46 -7 11 35 72 48 68 6 -2 30 -27 54 -56z m-190 -310 c40 -48 41 -49
22 -66 -43 -39 -113 -6 -113 54 0 32 18 61 38 61 6 0 30 -22 53 -49z"/>
<path d="M1028 1504 c28 -51 -38 -89 -178 -104 -75 -7 -107 -7 -116 1 -27 22
-26 -19 2 -60 28 -44 54 -54 54 -21 0 14 9 20 35 25 19 3 51 7 70 10 19 3 35
3 35 0 0 -3 -11 -27 -24 -53 -28 -55 -51 -79 -61 -62 -10 17 -25 11 -25 -9 0
-11 11 -32 24 -48 12 -15 28 -38 35 -50 16 -30 41 -30 41 1 0 12 20 66 45 119
35 75 53 102 82 121 33 23 39 24 59 11 21 -14 34 -11 34 7 0 5 -5 6 -12 2 -6
-4 -8 -3 -4 4 10 16 -66 122 -87 122 -14 0 -16 -4 -9 -16z"/>
<path d="M1210 1261 c0 -6 5 -13 10 -16 24 -15 4 -46 -84 -134 -82 -81 -97
-93 -110 -81 -22 17 -20 31 8 73 21 30 22 38 11 47 -8 7 -18 10 -24 8 -11 -4
-81 -87 -81 -97 0 -14 66 -71 74 -64 4 5 6 3 4 -3 -2 -6 25 -41 60 -78 l63
-67 32 20 c54 33 82 68 68 85 -10 12 -17 11 -48 -5 -44 -22 -66 -24 -81 -6 -9
10 12 36 88 112 l99 98 25 -17 c23 -15 27 -15 32 -1 8 19 -102 135 -128 135
-10 0 -18 -4 -18 -9z"/>
<path d="M1383 1045 c-13 -9 -28 -33 -34 -54 -10 -34 -8 -45 21 -110 35 -80
35 -107 4 -128 -19 -12 -24 -11 -45 6 -20 16 -24 28 -22 64 2 55 -17 68 -46
31 -27 -34 -37 -67 -22 -72 6 -2 28 -19 47 -37 66 -62 133 -69 180 -18 33 35
31 79 -7 165 -25 58 -29 75 -20 94 27 59 108 -2 95 -71 -3 -16 -7 -32 -10 -36
-4 -7 26 -29 40 -29 7 0 41 66 50 98 6 18 3 22 -13 22 -11 0 -26 8 -33 18 -7
9 -28 30 -46 45 -39 31 -103 37 -139 12z"/>
<path d="M1601 785 c-35 -80 -69 -146 -75 -146 -6 -1 -17 -1 -23 0 -7 1 -13
-5 -13 -14 0 -19 100 -67 113 -55 5 4 3 16 -3 27 -10 16 -6 32 25 101 21 45
39 81 41 79 2 -2 11 -52 19 -113 9 -60 21 -121 26 -135 13 -32 86 -66 104 -48
7 8 6 13 -2 16 -22 8 -15 37 41 159 46 100 58 119 75 117 36 -4 24 25 -19 47
-41 21 -80 26 -80 11 0 -6 5 -13 10 -16 17 -10 12 -32 -27 -116 -23 -51 -39
-75 -44 -67 -4 6 -16 66 -25 131 -18 117 -38 167 -68 167 -6 0 -40 -65 -75
-145z"/>
<path d="M2481 818 c-22 -102 -72 -148 -191 -179 l-45 -12 60 -16 c110 -31
145 -65 173 -166 l19 -70 17 60 c33 114 63 142 181 176 l60 16 -45 12 c-96 25
-140 52 -166 103 -13 26 -24 53 -24 60 -1 7 -7 26 -13 42 l-13 30 -13 -56z"/>
<path d="M3100 831 c-47 -20 -63 -45 -33 -53 12 -4 33 -45 66 -132 40 -104 46
-130 36 -142 -25 -30 5 -35 69 -12 59 22 83 48 44 48 -14 0 -29 28 -67 127
-51 134 -52 138 -40 166 9 22 -15 22 -75 -2z"/>
<path d="M1972 788 c-8 -8 -7 -14 4 -23 14 -9 11 -26 -22 -144 -29 -104 -41
-135 -56 -139 -37 -9 -14 -36 47 -54 63 -18 89 -12 65 16 -10 13 -8 31 10 98
46 173 50 186 70 191 45 12 24 25 -96 62 -6 2 -16 -1 -22 -7z"/>
<path d="M2946 780 c-62 -17 -83 -37 -48 -47 20 -5 29 -30 78 -210 14 -52 14
-66 4 -78 -24 -29 2 -35 65 -17 61 18 84 45 47 54 -15 4 -27 35 -56 139 -34
119 -36 134 -22 145 13 9 14 13 4 21 -9 7 -32 5 -72 -7z"/>
</g>
</svg>
