<svg version="1.0" xmlns="http://www.w3.org/2000/svg" width="660" height="646.667" viewBox="0 0 495 485"><path d="M221.5 18.5c-24.9 3.1-48.6 10.4-72.6 22.5C83.3 74.1 38.8 135.6 27.3 209.2c-2.4 15.5-2.4 47.8.1 63.8 6.1 40.4 22.3 77.6 47.4 109.4 6.8 8.7 25.6 27.5 33.7 33.8 35.4 27.6 72.6 43.3 114.5 48.3 67.9 8.1 134-14.4 184.3-62.7 45.5-43.7 71.1-109.9 66.8-172.6-3.2-46.2-16.8-84.3-42.9-120.2-36.9-50.7-95.2-84.3-157.4-91-13-1.3-38.7-1.1-52.3.5zm64 3.9c40.8 7.5 76.4 23.8 105.5 48.3 24.4 20.5 43.3 44.4 56.9 71.8 16.6 33.2 23.3 62.1 23.4 100 .1 20.4-1.3 33-5.8 51.2-17.7 72.2-71.1 131.5-141 156.7-41.3 14.8-90.4 16.7-133 5.1-25.6-7-50.7-19.1-72-34.8-48.9-35.9-79.9-87.2-89.1-147.7-2.5-16.2-2.5-49.4 0-64.5 6.9-41.9 23.3-77.6 50.4-110.4 33.7-40.5 86.4-69.5 139.2-76.5 15.2-2 52.6-1.5 65.5.8z"/><path d="M231.8 38.7c-3.2.5-4.4 2.9-1.7 3.6 1.7.5 1.9 1.4 1.9 8.5 0 4.3.3 10.7.6 14.1.6 5.7.5 6.3-1.4 6.8-1.2.3-1.9 1-1.5 1.9.4 1 2.5 1.4 8.3 1.4 8.5 0 10.9-1.5 5.8-3.7-2.4-1-2.8-1.8-2.8-5.2 0-3.9 0-4 4.4-4.6 8.4-1.3 12.6-5.5 12.6-12.6 0-5-2.6-8.7-6.8-9.8-3.6-1.1-13.9-1.2-19.4-.4zM247 44c2.9 2.9 2.8 10.3-.2 12.4-1.2.9-3.2 1.6-4.4 1.6-2 0-2.1-.6-2.3-8-.2-8-.2-8 2.3-8 1.5 0 3.5.9 4.6 2zm21.7-4.4c-1.3 1.3-.7 2.4 1.8 3.4l2.6 1-6.6 12.9c-4.2 8.3-7.3 13.2-8.5 13.6-3.3 1.1-2.3 3.4 1.8 4 2 .3 4.7.8 5.9 1.1 2.6.5 3.9-1.2 2.3-3.1-.6-.8-1-2.4-.8-3.7.3-2 .8-2.3 4.3-2.1 7 .4 8.5 1.1 8.5 3.9 0 1.3-.7 2.7-1.5 3-1.5.6-2.1 3.4-.7 3.4 2.8 0 13.9 2.3 14.6 3 .5.5 1.4.6 2.1.4.7-.3 3 .5 5.2 1.9 5.1 3.2 8.2 3.8 12.6 2.6 4.6-1.2 6.7-4.2 6.7-9.6 0-3.6-.7-5-5-9.9-2.7-3.1-5.2-6.5-5.5-7.5-.8-2.6 1.2-5.9 3.6-5.9 2.8 0 6.9 4.4 6.9 7.3 0 1.4.7 2.8 1.6 3.1 2 .8 1.8 1 3.3-3.3 1.6-5 1.4-7.1-.8-7.1-1.1 0-3.5-.9-5.3-1.9-8-4.6-16.1-2.4-17.7 5-1 4.6.5 8.4 5.7 14.1 2.1 2.4 4.2 5.1 4.5 6.1 1 2.7-1 5.7-3.8 5.7-4.2 0-6.7-3.3-7.7-10.5-.2-1.2-1.2-2.1-2.5-2.3-1.9-.3-2.3.3-2.9 3.7-.4 2.3-1 4.1-1.4 4.1-1.9 0-3-3.6-5.6-18.6l-2.7-16.2-4.1-.6c-2.3-.4-5.5-.9-7.1-1.2-1.7-.3-3.4-.2-3.8.2zm9.9 17.9l.7 6.8-2.4-.6c-1.3-.4-3.4-.7-4.6-.7-2.9 0-2.9-.4.8-8.6 3.6-7.9 4.4-7.4 5.5 3.1zM197 45c-4.9.9-9.4 3.7-11.5 7.3-3.6 6-1.6 18.7 3.8 24.5 7 7.6 18.8 6.7 24.5-1.8 2.1-3.1 2.3-4.4 2-10.6-.7-10.6-4.4-16.2-12.9-19.2-1.3-.5-4-.6-5.9-.2zm3.3 5c3 2.4 6.3 10.6 7.3 17.9.8 6.5-1.3 10.4-5.4 9.9-4.7-.5-8.7-8.6-9.9-19.9-.5-4.9-.3-5.9 1.6-7.8 2.6-2.6 3.2-2.6 6.4-.1zm-33.2 5.4c-.6.7-2.6 1.7-4.4 2-8.5 1.6-14.3 11.3-11.9 20.3 2.4 8.8 8.6 15 16 16 4.8.6 12.7-2.6 16.8-6.8l2.8-2.9-2.3-4c-1.6-2.8-2.1-4.9-1.6-6.9.9-4-1-4.3-7.5-1.2-3.8 1.8-5.6 3.3-5.8 4.8-.3 1.7.1 2 1.7 1.6 2.6-.7 4.6.9 5.9 4.7 1 2.6.8 3-2.4 4.5-3 1.4-3.6 1.4-6.3.1-4.4-2.3-9.5-11.9-9.6-18 0-4.5.3-5.1 3.1-6.8 2.9-1.7 3.2-1.7 6.8.2 6.4 3.2 8.4.9 4.4-5-2.7-3.9-4.1-4.6-5.7-2.6zm165.1 4.3c-4.7 6.1-5.4 7.9-3.6 9.4 1.2 1 2 .7 4.7-1.9 3.2-3.1 8.7-4.5 8.7-2.2 0 .6-1.8 4.2-4 8.1-2.2 3.9-4 7.4-4 7.8 0 .3-1.2 2.4-2.6 4.5-2.2 3.2-3 3.7-5.5 3.4-2.2-.3-2.9 0-2.9 1.1 0 1.5 13.2 9.1 15.8 9.1 1.7 0 1.5-1.5-.3-3-2.2-1.8-1.9-3.4 2.3-10.8 2-3.7 4.9-8.8 6.2-11.5 1.4-2.6 2.8-4.7 3.2-4.7.4 0 1.5 1.1 2.4 2.5 1.3 2 1.4 3 .4 5.9-1.2 3.7-.7 5.6 1.4 5.6 1.3 0 2.8-2.7 5.2-9.2l1.3-3.8-7.9-4c-4.4-2.2-9.7-5-11.7-6.3-2.1-1.3-4.3-2.6-5-3-.6-.4-2.4.9-4.1 3zM130.4 76.3c-2.8 2.3-7.2 5.6-9.7 7.4-4.7 3.2-5.5 6-1.8 5.9 1.3-.1 4.6 3.5 10 10.8 4.5 6 8.1 11.3 8.1 11.8 0 1.8-3.4 2.1-8.4.8-2.8-.7-6.5-1.3-8.3-1.1l-3.1.2 1-3.5c1.4-4.3-.7-8.1-5.5-10.1s-9 .2-16.9 8.6c-6.7 7.3-7.6 9.9-3.3 9.6 3.5-.3 21.5 16 21.2 19.2-.3 3.9 1.8 3.5 6.4-1.4 5-5.3 5.5-6.9 1.8-7-1.4 0-4.2-1.4-6.3-3.3-3.1-2.7-3.6-3.6-2.6-4.7 1.7-2 4.4-1.9 9.1.6 5.9 2.9 9.7 2.8 12.6-.5 1.2-1.5 7.1-6.3 13-10.7 6-4.4 10.9-8.4 11.1-8.9.3-.9-3.5-9-4.3-9-.3 0-1.4.5-2.4 1.2-1.4.9-1.8 2-1.4 4.8.5 3.4.2 4-3.1 6.5l-3.6 2.7-2.3-2.8c-4.3-5.5-4.6-5.9-4.7-7 0-.6 1.1-1.7 2.5-2.4 1.9-1 2.8-1 3.8-.1 1.1.9 1.7.8 2.7-.4 1-1.3.8-2.2-1.5-5.5-1.5-2.2-3-4-3.4-4-1.7.1-3.1 1.8-2.6 3.2.4 1-.3 2.5-1.7 3.8l-2.3 2.1-3.2-3.8c-1.8-2.1-3.3-4.3-3.3-5 0-2.3 5.8-5.5 8.9-4.8 1.9.4 3.2.1 4.2-1.1 1.2-1.4 1-1.9-1.6-4-1.7-1.3-3.2-2.4-3.5-2.3-.3 0-2.8 1.9-5.6 4.2zm-20.3 30.6c3.4 3.4 3.7 6 1 9.2l-2 2.4-5.1-5-5.1-5 2.6-2.3c3.4-2.9 5.1-2.8 8.6.7zm256.3-31.2c-.6.2-.9 1.4-.7 2.6.6 3.3-15 22.7-18.3 22.7-1.3 0-2.4.6-2.4 1.3 0 1.3 19.2 17.7 20.7 17.7.4 0 2.5-1.5 4.5-3.4 3.6-3.3 3.6-3.5 1.8-5.1-1.4-1.3-2.3-1.4-3.9-.6-3.1 1.7-5.7 1.3-9-1.5l-3.1-2.6 3.7-4.7c3.6-4.6 3.9-4.7 6.1-3.3 1.4.9 2.2 2.4 2.2 4.2 0 4.4 2.4 4.3 5.9-.3 3.5-4.6 3-6-2-6.1-5.1-.1-5.8-2.6-1.9-7.4l3.2-4.1 3 2.2c1.6 1.2 3.1 3.3 3.4 4.7 1 4.5 1.3 5 3.3 5 2.4 0 5.3-7.1 3.2-7.8-1.2-.4-7.2-4.8-14.6-10.7-2.2-1.8-4.5-3.1-5.1-2.8zM229.5 92.6c-14.5 2.1-32.4 7.7-46 14.3-30.2 14.8-52.5 37-67.9 68-18.6 37-20.4 81-4.9 121.5 12.6 33.2 40.6 63.8 72.8 79.6 9.4 4.6 16 7 31 11.3 10.9 3.1 11.1 3.1 35 3.1 26 .1 31.9-.8 49.4-6.9 48.3-17 85.8-58.6 96.5-107 3.6-16.6 4-19.7 4-36 0-18.9-1.9-31.1-7.5-48-12.2-37.1-40.5-69.2-75.3-85.5-23.2-10.9-37.2-14.1-64.1-14.5-11-.2-21.3-.1-23 .1zm52 7.3c12.9 3 20.6 5.7 32.2 11.2 14.6 7 26.9 15.6 38.6 27.1 5.6 5.6 10.6 10.1 11 9.9.5-.1.5.3.2 1-.4.6.4 2.3 1.7 3.7 4.1 4.5 11.9 17.2 15.8 25.7 17.8 38.7 18.5 80.2 2 121-3.6 9.1-12.4 24.1-17.8 30.5l-3 3.5-1.7-6c-8.7-29.6-17.1-47.1-28.3-59.6l-5.4-5.9 6.2-42c3.4-23.1 6.6-43.5 7.1-45.4 1.1-4 5.1-7.6 8.4-7.6 1.2 0 3.1 1 4.3 2.3 1.8 2 2.1 3.1 1.6 6.8-.7 5.2.8 7.2 5.3 6.7 4.1-.5 6.1-6.3 4.4-12.7-3.7-13.8-20-17.5-29.5-6.7-3 3.5-3.4 5.2-7.1 29.6-.9 5.8-2.5 15.9-3.6 22.5-1 6.6-2.6 17.3-3.4 23.7-.8 6.4-1.8 12.3-2.1 13.1-.4 1.2-2.4.3-8.7-3.9-10.4-6.8-10.7-7.1-10.7-9.4 0-1-1-2.6-2.1-3.4-2.2-1.5-2.1-1.6 4.8-9 8.5-9.1 15.6-22.4 17.9-33.5 1.5-7.5 2-25.5.8-30.8-1.1-5-4.4-14.4-6.6-18.7-3.3-6.5-12.1-17.6-13.6-17.1-.7.3-1.1.1-.8-.4.8-1.2-7.8-8.3-13.9-11.5-24.4-13-53.6-12.4-75.2 1.7-15.9 10.2-26.5 24.5-31.9 42.7-1.5 5.1-1.9 9.6-1.9 20.5 0 12.8.3 14.7 2.7 21.4 5.4 14.5 15.5 28.6 24.4 34.1 1.9 1.2 3.4 2.5 3.4 3s-2.9 2.5-6.5 4.5c-15.6 8.7-33.4 25.2-43.1 39.9-7.1 10.6-14 25.4-17.7 37.6l-3.4 11.2-3-3.9c-13.7-17.9-23.6-42.2-27.3-67-2.4-16.8-.5-42.8 4.5-59.1 9.3-31 25.4-55.1 49.5-74.1 18.9-14.9 40.4-24.2 65-28.1 4.1-.6 8.2-1.3 9-1.5.8-.2 9.8-.2 20 0 14.1.3 20.6.8 27.5 2.4zm-18.7 9.7c4.2.9 8 1.8 8.5 2.1.4.2-.4 1.8-1.8 3.5-2.2 2.6-2.5 3.9-2.5 10.2v7.3l-6.2-1.3c-9.3-2-16.5-1.6-25.5 1.1-2.2.7-2.3.5-2.3-6.2 0-5.8-.4-7.6-2.5-10.7-1.4-2-2.5-3.9-2.5-4.1 0-.3 8.1-2.1 13-2.9 6.1-.9 14.7-.5 21.8 1zm-35.6 6.1c2.6 2.5 2.8 3.2 2.8 10.9v8.2l-4.5 2.6c-5.4 3.2-12.7 12-15 18.1l-1.8 4.5h-10.1c-9.1 0-10.4-.2-13.1-2.4l-2.9-2.4 4.1-8.3c7-14 16.2-23.5 29.6-30.3 3.8-2 7.2-3.6 7.5-3.6.3 0 1.9 1.2 3.4 2.7zm56.8 1.8c8.6 4.8 15.5 10.9 20.7 17.9 5.2 7 10.5 17.9 9.8 19.8-1.3 3.3-6.1 4.8-15.2 4.8h-8.9l-1.3-3.8c-2.4-6.4-7.8-14-12.8-17.6-2.6-2-5.3-3.6-6-3.6-.7 0-1.1-2.5-1.2-7.2 0-5.5.4-7.9 2-10.5 2.7-4.3 5-4.2 12.9.2zm-34.7 39.1c14.2 4.6 17.7 8.1 21.2 21.9.9 3.4 2.8 7.2 4.5 9.2 4.4 4.9 3.7 10.3-1.3 10.3-1.5 0-1.8-.5-1.5-2.4.7-3.4-.8-5.6-1.7-2.5-1 3.8-9.8 22.9-10.4 22.9-.3-.1-1.5-1.5-2.6-3.3-1.3-2-3.6-3.7-6.5-4.8-4-1.5-4.5-2-4.2-4.6.3-2.6.2-2.6-1-1-1 1.3-2.4 1.8-4.3 1.5-2.7-.3-3-.7-3.2-4.3-1-16-1.5-18.8-3.9-21.1-1.6-1.6-3.5-2.4-5.9-2.4-4.1 0-9.5 2.4-9.6 4.3 0 .6-.5.1-1-1.3-2.4-5.9 1.9-14.5 10.2-20.5 2.6-1.9 5.5-4.8 6.4-6.4l1.5-3 2.6 2.4c1.4 1.3 6.3 3.6 10.7 5.1zm68.3 5.5c1.2 5.1.6 25.4-.9 31.2-.9 3.3-1.8 6.1-2 6.4-.3.2-2-.5-3.8-1.6-2.6-1.6-5.1-2.1-10.7-2.1H293l.2-10.3c.1-5.6-.1-13.2-.6-17l-.8-6.7h9.4c7.6 0 9.7-.4 11.8-2 2.7-2.1 3.7-1.6 4.6 2.1zM185.5 161c2.6 1.6 4.9 2 11.6 1.9 4.6-.1 8.9-.1 9.5 0 .7.1.9 3.2.6 10.1-.4 8.8.1 13.6 2.4 21.2.5 1.6-.4 1.8-9.8 1.8-8.6 0-10.8.3-13.7 2.1-1.8 1.1-3.7 1.7-4.1 1.2-1.6-1.6-3-11.7-3-20.8 0-8.4 1.6-19.5 2.8-19.5.3 0 1.9.9 3.7 2zm47.8 21.2c1.4 1.6 1.7 3.9 1.7 11.8 0 7.6.3 10 1.5 11 1.4 1.2 1.2 1.6-1.4 4.1-1.7 1.5-3.3 3.9-3.7 5.3-.3 1.4-.9 2.6-1.3 2.6s-2.8-4.6-5.3-10.3c-3.2-7-4.8-12.1-5.2-16.2-.6-6.8-.3-7.6 3.9-9.8 3.6-2 7.3-1.4 9.8 1.5zm77.4 18.3c1.3.9 2.3 2.3 2.3 3.2 0 2.9-7 14.2-12.7 20.3-5.7 6.2-7.3 7.2-7.3 4.3 0-.9-2-3.6-4.6-6l-4.5-4.4 3.5-7.1c2-3.9 3.6-8.1 3.6-9.4 0-2 .6-2.3 4.3-2.7 6.3-.7 12.8.1 15.4 1.8zm-95.3 4.9c4.6 8.1 8.8 19.9 8.4 23.4-.3 2.2-1.3 3-6.6 5-5.7 2.2-6.7 2.3-9 1.1-7.8-4-24.2-24.8-24.2-30.7 0-3.8 4.3-5.1 16.7-5.2h11.1l3.6 6.4zm58.8 8.8c-.3 10.7-.1 14.2 1.3 17.8 3.1 8.3 3.1 9.5-.7 12.4-6.2 4.7-18.8 9.8-25.4 10.4-9.1.7-19.3-2.6-25-8.1l-4.4-4.2 5.5-5.6 5.4-5.7 2.6 4.4c1.4 2.4 3.7 5.1 5 6 2.1 1.4 2.6 1.4 4.7 0 2-1.3 2.5-1.3 4.2 0 3 2.1 4.3 1.8 8.9-2.5 8.6-7.9 14-18.5 16.7-32.4.6-3.1 1.2-5.7 1.3-5.7.2 0 .1 6-.1 13.2zm-22.9-.1c4.1 2.2 4.9 6.1 2.2 10.3l-1.6 2.4-2.9-2.9c-3.6-3.7-5.5-3.6-9 .1l-2.7 2.9-1.2-2.5c-1.6-3.6-1.4-5.8 1-8.8 1.7-2.2 2.8-2.6 7-2.6 2.8 0 6 .5 7.2 1.1zm34.7 28.4c1.6.8 2.8 2.1 2.5 2.8-3.6 11.5-5.4 16.7-8.7 24.7-2.2 5.2-5.2 14-6.7 19.5-2.8 9.9-4 11.5-7 9.6-1.2-.8-1-2.4.9-10.7 3.1-13.7 14.3-47.4 15.6-47.4.3 0 1.8.7 3.4 1.5zm-55 13.4c4.2 1.9 7.6 2.6 14.3 2.9 8.1.4 8.7.6 8.7 2.6 0 1.1-.5 7.7-1 14.6-.9 12.2-.4 17.2 1.2 11.5.4-1.6 1-8.1 1.4-14.5.4-6.3.8-12.1.9-12.8.1-1.2 16.5-9.8 16.5-8.7 0 .3-.7 2.2-1.4 4.2-1.3 3.3-7.6 26.1-10.6 38l-1.1 4.3h-20.7l-2-4.8c-4.1-9.8-4-12.6.8-13.7 3.3-.7 5.5-2.9 4.5-4.5-.4-.6-2.6-2-5-3.1-2.6-1.2-5.2-3.4-6.4-5.4-1-1.8-4-4.5-6.6-6-9.3-5.5-20.5-2.3-26.8 7.7-.9 1.5-4 4.2-7 6.2-2.9 1.9-6.3 4.7-7.6 6.2l-2.4 2.7 2.2 1.8c1.1.9 3.9 2 6.1 2.4l4 .7v5.2c0 2.9-.5 7.8-1.1 10.8-1.1 5.2-1.4 5.6-5.7 7.8-2.6 1.2-6.3 3.5-8.3 5.1-2 1.6-3.9 2.9-4.3 2.9-.3 0-.7-5.3-.8-11.8l-.3-11.7-1.7 5.5c-1 3-1.9 9.5-2.2 14.4-.5 11.5-1.8 13.1-7.5 9.3-6.8-4.5-8.6-2.9-2.6 2.1l3.6 2.9-4.5 4.3c-2.5 2.4-5.2 4.7-6 5.2-2.4 1.3-2 4.8.5 4.8 1.1 0 2.7.7 3.5 1.5 2.2 2.2 5.6 1.8 9.8-1 2-1.3 3.6-2.2 3.6-1.9 0 .3-1.5 2.4-3.3 4.7-1.9 2.3-3.7 5-4.1 6-.5 1.7-1.3 1.3-6.5-3.2-3.2-2.8-6.4-5.7-7.1-6.6-.7-.8-1.7-1.2-2.4-.8-.6.3-.8.2-.3-.2.4-.5-.5-2.1-1.9-3.6l-2.7-2.8 2.3-8.1c3-10.5 13.5-32.1 20.4-41.9 9.2-13.1 27.8-29.7 43.3-38.7l8.8-5.1 5 5c2.8 2.8 7.5 6.2 10.5 7.6zm65.7 8c-.7 8.8-3.6 21.4-6.7 28.8-6.9 16.3-8.5 14-3.8-5.2 1.8-7.4 8.5-29 9.5-30.8 1.2-2.1 1.5.1 1 7.2zm13.7 4.6c-.8 7.6-9 44.7-11 49.3-1.1 2.7-1.7 3.3-2.6 2.4-2.2-2.2 5.6-42.1 10.9-56 2.2-5.7 3.5-3.6 2.7 4.3zm-85.7-3.9c4.5 3.4 6.8 9 6.5 16.4-.1 5.4.3 7.6 2.8 12.8 3.3 7.1 3.2 9.1-.8 8.4-2.4-.5-2.6-.4-1.3 1.1.7 1 2 1.7 2.7 1.7.8 0 1.1.6.8 1.5-.7 1.7-5 2-5.9.4-.4-.5-1.2-.8-1.8-.6-1.6.5-15.7-6-18.4-8.6-2.7-2.4-2.9-1.7-.8 2.3 1.6 3.1 6.4 6.4 11 7.6 1.7.4 4.9 1.6 7.2 2.6 5.1 2.3 8.7 1.6 11.5-2.2 2.3-3.1 5.8-3 5.8.2 0 1.1 1.4 2.7 3.5 3.9 1.9 1.2 3.2 2.5 2.9 3-1.3 2.2 1.1 5.1 7 8.4 9.4 5.2 10.1 6.3 8.6 12.6-.7 3-2.5 6.5-4.1 8.3l-2.9 3.1.6-3.3c.8-3.9-1.7-6.9-6.6-7.8-2.5-.6-4.1.2-9.9 4.4-3.8 2.8-8 5.6-9.2 6.3-2.4 1.3-14.2 1.9-15.3.8-.4-.4.9-2.2 2.8-4.1 3.8-3.8 5.4-8.2 3.9-10.7-1.7-2.7-4.1-2.4-9.1 1.2-8.1 5.9-10.8 6.9-18.8 6.8-9.9-.1-11.2.5-20.1 9-1.8 1.7-3.7 2.8-4.2 2.4-.6-.3-1.1-.2-1.1.3 0 .9-6 2.6-6.7 1.9-.2-.2 2.8-4.2 6.6-8.8 7.5-9.2 13.3-13.1 21.1-14.4 5.1-.9 9-3.1 9-5.1 0-1.9-.9-1.8-5.5.6-2.2 1.1-5.1 2-6.5 2-1.5 0-4.9 1.2-7.6 2.6-11.1 5.9-14.1 7.6-17.3 9.9-3.6 2.7-6.1 3.2-6.1 1.4 0-.6-.7-.9-1.5-.5-3.2 1.2-1.2-1.4 5.8-7.3 3.9-3.3 10.1-8.5 13.6-11.5 3.5-3.1 8.3-6.4 10.7-7.5 5.8-2.8 7.2-5.3 8.4-14.7 1.3-10.1 1.6-11 5.7-16.6 3.8-5.3 2.8-7.6-1.5-3.5-1.5 1.4-3.8 2.8-5.2 3.1-3.2.8-8.5-.7-8.5-2.3 0-1.6 11.9-9 15.8-9.8 2.8-.6 3.8-2.3 1.2-2.3-.8 0-1.5-.4-1.5-.8 0-1 3.7-4.5 6.5-6.1 3.1-1.8 13-.8 16.2 1.5zM329 296c-1.8 11.1-9.5 33-12.3 34.7-1.4.8-.1-7 3-18.7 4-14.8 8.5-30.4 9.2-31.5 1.2-2 1.2 8.1.1 15.5zm-57.3 9.2c10.3 4.3 13.3 6.5 18 13.8 2.3 3.6 5.8 8.6 7.8 11.2 2.1 2.9 3.5 5.9 3.5 7.6 0 3.1-2.7 11.9-3.9 12.7-1.2.7-11.3-3.4-14.9-6.2-1.8-1.3-4.6-4.9-6.3-7.9-3.1-5.5-9.9-12-17.6-16.8-4-2.5-5.5-4.6-3.3-4.6 2.1 0 11.7 4.3 14.7 6.6 1.7 1.3 4 2.4 5 2.4 1.4-.1 1-.7-1.6-3-4.1-3.5-11.5-7.2-19.3-9.6-6.3-1.9-7.8-4.4-2.8-4.4 3.9 0 16 4.2 21.6 7.5 4.3 2.5 8 3.3 6.9 1.5-1-1.6-9-6-14.7-8.1-4.1-1.5-19-4.9-21.4-4.9-.2 0-.4-.5-.4-1.1 0-.9 3-1 10.8-.5 8.5.6 12.1 1.4 17.9 3.8zm65.4 16.9c-.6 1.8-2.3 4.8-3.7 6.6-1.4 1.9-2.4 3.5-2.3 3.6.2.1 2.9 1.5 5.9 3 5.9 2.9 10.6 6.4 9.8 7.2-.2.3-3.1-.6-6.4-2-3.2-1.3-8.5-3.2-11.7-4l-5.7-1.6 7-7.7c3.8-4.2 7-8.1 7-8.6s.3-.7.6-.3c.4.3.1 2-.5 3.8zM222 336.9c0 2-4.8 6.7-9.9 9.7-5.7 3.4-2.3 5.2 9.9 5.3 9.1 0 13.2-1.4 22.1-7.5 3.8-2.6 7.2-4.4 7.6-4 .4.3-2 3.3-5.2 6.6-4.6 4.6-7.5 6.6-13 8.7-6.6 2.6-6.8 2.8-3.7 3.1 4.8.5 12.6-3.7 19.5-10.3 3.2-3.1 6.3-5.5 6.9-5.3 1.3.5-7.6 12.2-11.7 15.3-1.7 1.4-5.8 3.4-9.1 4.5-7.7 2.7-9.5 4.5-3.4 3.6 7.1-1.1 13.1-4.3 18.3-9.8 6-6.4 6.3-3.8.4 3.4-6 7.4-14.2 11.4-26.3 12.8-9.4 1-21.9.1-29.8-2.2l-3.8-1.2.6-5.8c1.1-10.6 5-15.8 15.6-20.6 3.6-1.7 8.1-4.2 10-5.6 4.2-3 5-3.2 5-.7zm88 4.6c0 2.5-3.5 20.9-6.5 34.1-.3 1.3-1.7 2.4-4 3.1-3.9 1.2-3.9 1.2-2.6-5 .6-2.3 1.7-7.6 2.6-11.7 1.8-7.8 5.1-19.7 6.6-23.8.8-2 1.2-2.2 2.4-1.2.8.7 1.5 2.7 1.5 4.5zm8.1 1.2c1.3 3.3 3.1 23 2.3 25.4-.4 1.5-10.1 6.5-10.9 5.7-.2-.2.2-3.3 1-6.8.8-3.6 2.1-10.6 3-15.5 2.4-13.1 2.7-13.6 4.6-8.8zM194 347.5c-2.8 3-5.8 11.2-6.6 18-.4 3-1.1 5.5-1.6 5.5-1.2 0-10.1-4.8-15.7-8.5l-4.2-2.8 4.5-1.8c2.6-.9 7.1-4 10.2-6.8 3.1-2.8 6.8-5.4 8.2-5.7 1.5-.3 3.2-.7 3.7-.8 2.8-.8 3.5.7 1.5 2.9zm137 2.1c1.2 2.4 2 5.4 1.7 6.6-.3 1.8-1 .9-3.5-4.4-3.7-7.7-3.7-7.9-1.7-7.2.8.3 2.4 2.5 3.5 5zm-50.1 16.5c-2.2 11-5.1 18.7-7.3 19.3-3 .8-3.2 0-1.3-5.4 2.2-6.3 8.8-20.2 9.3-19.7.3.2-.1 2.8-.7 5.8zm-29.3 11c-.9 8.5-1.3 9.9-3.3 9.9-1.1 0-1.4-.7-1-2.3.3-1.2 1.1-5 1.8-8.5 1.8-8.5 3.3-8 2.5.9zm-5-3.9c-.2.7-1 4.2-1.7 7.7l-1.2 6.3-4.1-.6c-2.2-.4-4.1-.8-4.2-.9-.2-.1.4-2.8 1.3-5.9 1.4-4.8 2-5.7 4.7-6.6 4.4-1.4 5.6-1.4 5.2 0zm-13.3 7.5c-.9 2.7-1.7 4.9-1.8 5.1-.4.5-18-3.7-25.5-6.2l-7.5-2.4 10.5.5c5.8.2 13.2 0 16.5-.5 10.2-1.6 9.6-1.9 7.8 3.5z"/><path d="M250.5 171.6c-6.6 1.6-8.7 3.5-9.8 9.4-.5 2.3-.4 2.3.6.6 3.2-5.4 5.4-6.6 11.6-6.6 3.3 0 7.2.5 8.7 1 3.7 1.5 4.1.6.7-1.8-3-2.2-8.5-3.3-11.8-2.6z"/><path d="M251 178.7c-3.8 1.4-6.9 6-3.1 4.8 1.2-.3 2.1 0 2.5 1 .8 2.3 4.7 1.9 5.3-.6.4-1.6 1.2-2 2.9-1.6 2.6.5 3.1-.5 1.2-2-1.7-1.3-6.9-2.2-8.8-1.6zm-25.6 4.7c-1.7.8-3.4 2.1-3.7 3-.7 1.7.8 2.2 1.8.6.4-.6 1.4-.1 2.5 1.2 1.5 1.9 2 2 3.4.9.9-.7 1.6-2 1.6-2.8 0-.8.5-1.1 1-.8.6.3 1 .2 1-.4 0-.9-3.2-3.2-4.2-3.1-.2.1-1.7.7-3.4 1.4zm16.8 32.3c-3.4.7-2 2.8 1.7 2.7 4.2-.2 6.4-1.2 5.6-2.4-.6-1-3-1.1-7.3-.3zm-27.9 66c-2.2.8-1.4 2.1 2.2 3.3 1.9.6 3.5 1.7 3.5 2.3 0 .8.4.7.9-.2 1.3-2 .4-3.6-2.5-5-1.4-.6-2.6-1.1-2.7-1-.1 0-.8.3-1.4.6zM393.5 98.8c-.5.4-1 1.6-1 2.8 0 1.4-3.2 4.9-10 10.8-7.9 6.9-10.5 8.6-12.2 8.1-3.4-.8-2.8 1.4 1.8 6.7 4.4 5.2 7.3 6.3 6.4 2.5-.8-3.2 6.8-10.5 9.1-8.6 2.1 1.7 1.7 3.8-1.6 9.4-3.6 6.1-3.7 8.5-.5 12.3 2.6 3.2 14.5 22.9 14.5 24.2 0 .4.7 1.3 1.4 2 .8.6 2.2 3.4 3.1 6.1 1.7 5.1 4.1 6.5 4.7 2.6.2-1.5 1.1-2.3 3-2.5 2.3-.3 2.8.2 4.3 4.8 2.2 6.7 1.5 8.4-3 7.6-4.3-.8-4.5.3-1.3 8.6 2.4 6.1 4.4 7.4 5.3 3.5.4-1.4 5.8-6.4 13.5-12.6l12.8-10.3-1.8-5.2c-2.8-8-3.1-8.6-4.6-8.6-.9 0-1.4 1.1-1.4 2.9v3l-12.7.3c-13.7.3-17.3.1-17.3-1.1 0-.4 1.6-1.3 3.5-2 3.7-1.3 4-1.8 2.5-4.1-.6-1-2.3-1.3-5.4-1.1-4.3.2-4.6 0-7.6-4.1l-3.1-4.3 18.5-.3c10.2-.1 18.6-.6 18.6-1 0-.7-11.5-20.8-12.6-22.1-.5-.5-7.4 1.6-9.3 2.8-1 .6-1 1.3-.3 2.8.8 1.5 1.9 1.8 4.5 1.5 2.6-.3 4 .2 5.7 2 5.4 5.8 5.4 5.8-9.2 5.8-21.2 0-22.6-.6-19.2-7.3.9-1.7 1.7-4.8 1.7-6.9 0-3.7.9-4.9 2.2-2.8 1.1 1.7 7.1 1.1 9.8-1 3.7-2.9 4.3-7.1 1.8-12.3-2.4-5-13.2-16-14.6-14.9zm8.8 13.4c1.7 3.6 1.1 5.7-2.5 8.2-3 2.1-5.8 2-8.8-.5l-2.4-2.1 4.9-4.3c2.8-2.5 5.5-4.4 6.1-4.5.6 0 1.8 1.4 2.7 3.2zm31.2 62.9c-1.1 1.1-4.1 3.5-6.7 5.4L422 184l-1.5-3.6c-2.5-6-2.3-6.3 5.8-6.7 3.9-.1 7.6-.4 8.1-.5.5-.1.1.7-.9 1.9zM83.4 126.4c-3.4 1.5-6.5 5.1-11.3 13.4-3.3 5.6-3.3 7.3-.1 6.5 3.2-.8 24.2 12.5 25 15.9 1.2 4.7 2.5 3.4 10.7-10.1 5.5-9.1 4.1-16.9-3.3-19-2.5-.7-3.9-.5-6.1.9l-2.9 1.8-1.2-4.2c-.8-3-1.9-4.6-3.7-5.4-3.2-1.5-3.2-1.5-7.1.2zm4.8 8.3c2 1.8 2.3 5.4.8 8.3-1 1.8-1.3 1.8-6-1.2-5.4-3.4-5.8-4.2-3.3-7 2-2.2 6.1-2.3 8.5-.1zM102 142c3.4 1.8 4.2 4.6 2.5 8.5l-1.5 3.6-3.8-2.3c-2.1-1.3-4.9-3-6.1-3.8l-2.3-1.5 2.2-2.8c2.3-2.8 5.7-3.5 9-1.7zm-37.8 17.7c-4.8 3.1-6.7 6.9-6.7 13.5 0 5.5 2.1 8.9 8.4 13.3 3.6 2.5 5.4 3 11.5 3.3 6.7.4 7.5.2 10.4-2.3 4.4-3.7 6.2-7.5 6.2-13 0-5.6-2-9.2-6.6-12.4-8.2-5.7-16.8-6.6-23.2-2.4zm15.8 8.7c3 1.5 6.2 3.2 7.1 3.9 4.4 3.4 4.1 8.9-.6 10.1-5.2 1.3-20.2-4.7-23.8-9.6-1.9-2.6-1.9-2.8-.2-5.4 1.6-2.5 2.1-2.6 6.9-2.1 2.8.3 7.6 1.7 10.6 3.1zm-22.5 24.1c-7.1 2.5-10.2 8.1-12 21.7-.6 4.7.9 7.5 2.5 4.8 1.2-2 26.6 2.6 29.1 5.3.9 1 2.2 1.6 2.7 1.3 1.2-.7 4.2-13.2 4.2-17.2 0-1.5-.9-4.7-2.1-7-3.5-7.4-16.1-12-24.4-8.9zM74 203.3c3.7 1.8 4.7 2.9 5.4 6 .6 2.3.6 4.1 0 4.7-1.2 1.2-28.9-4.4-28.8-5.9.1-.6.2-1.8.3-2.6 0-.8 1.6-2.5 3.4-3.6 2.6-1.7 4.2-1.9 9.2-1.5 3.3.4 8 1.6 10.5 2.9zm374.8 4.5c-.5 1.6-2.4 2-14.3 3.2-13.1 1.2-13.9 1.2-15.2-.6-2.2-3-3.4-.4-2.7 5.9.7 5.8 2.6 7.7 3.9 3.8.6-1.9 2.3-2.4 15-3.6l6-.6-3.5 3.1c-1.9 1.8-6.6 5.7-10.5 8.8-3.8 3.1-7.3 6.1-7.7 6.6-1.1 1.6-1 6.6.2 6.6.6 0 .6.9 0 2.6-1.3 3.4-1.3 10.1.1 10.9.6.4 1.6-.1 2.3-1 .9-1.2 1.9-1.5 3.4-1.1 2.3.8 2.8 3.5 1.6 9.5-.6 2.6-1.1 3.1-3.5 3.1-1.9 0-2.9-.5-2.9-1.5 0-2.4-2-1.7-3 1.1-1.1 2.9-1.4 13.4-.3 13.4.3 0 1.5-.8 2.5-1.7 1-.9 8.8-3.2 17.6-5.2l15.7-3.6.9-6.2c.5-3.4.6-6.9.3-7.7-.8-1.9-2.7-2.1-2.7-.4-.1 4-1.7 3.7-14.5-2-12-5.5-15.9-8.1-14.3-9.8.4-.3 6.9-1.3 14.5-2.1 12.6-1.3 13.8-1.3 15 .2 2 2.9 3.2.8 2.6-4.8-.7-6.6-1.9-7.9-4.2-4.9-1.4 2-3.1 2.6-9.2 3.3-4.1.4-8.1.8-8.9.8-1.7 0 .7-2.1 11.7-10.5 7.9-6 8.8-7.6 7.8-13.4-.7-4.2-2.9-5.4-3.7-2.2zm-8.5 49.8c3.7 1.4 6.6 2.8 6.3 3.1-.5.6-12.2 3.2-14.3 3.3-.7 0-1.3-1-1.3-2.3 0-2.9 1.1-6.7 1.8-6.7.4 0 3.7 1.2 7.5 2.6zM46.5 237.9c-2.4.5-3 1.1-2.8 3.1.1 1.4.3 8 .4 14.7.4 13.8-.1 13.3 9.7 13.3 4.8 0 5.2-.2 5.2-2.4 0-2-.6-2.4-4.2-2.9-4-.5-6.8-2.7-6.8-5.2 0-1.2 12.4-2.5 23.2-2.5 4.5 0 5 .2 6.2 3.1 1.1 2.6 1.4 2.8 2.5 1.5 1.7-2.1.4-18.6-1.5-18.6-.8 0-1.4.9-1.4 2 0 2.9-2.9 3.7-16.8 4.2l-12.3.5.3-2.6c.2-2.1 1.1-2.9 5.1-4.1 3.2-1 4.6-2 4.5-3-.3-1.7-6.3-2.3-11.3-1.1zM61 274.1c-8.5 2.1-12 2.3-12 .9 0-.6-.7-1-1.5-1-1.8 0-1.9 1.6-.4 7.5 1.2 4.6 3.9 7 3.9 3.4 0-2.4.2-2.5 13.2-5.4 10.9-2.5 13.8-2.2 15.8 1.4 1.5 2.9.2 7-2.9 8.5-1.4.8-7 2.4-12.4 3.6-7.9 1.8-10.1 1.9-11.3.9-2.3-1.9-3.5.1-2.5 4.1.5 1.9 1.2 4.7 1.5 6.2.7 3.3 1.9 3.5 4.5.9 1-1 5.3-2.6 9.7-3.6 10.9-2.3 15.9-4.8 17.8-8.9 2.9-6.1 1.3-14-3.5-18-3.7-3.2-8.8-3.3-19.9-.5zm349.6 22.5c-1 3.7.2 5.1 11.9 13.6l7 5-7-.6c-3.8-.3-9.6-.9-12.7-1.2-5.4-.6-5.8-.5-6.7 1.7-1.7 4.7-1.3 5.1 17.6 19.4 4 3.1 7.3 6.4 7.5 7.5.2 1.2.8 2.1 1.3 2.2 1.2.1 5.4-7.9 5.4-10.5.1-1.8-2.4-2.4-3.4-.7-.3.5-1.2 1-1.9 1-1.4 0-18-12-17.4-12.5.2-.2 5.5.3 11.8 1.1 10.6 1.3 11.6 1.3 12.8-.3 3.1-4.3 1.6-6.6-10.1-14.8-3.7-2.6-6.6-4.9-6.4-5.1.2-.2 5 .1 10.6.8 9.3 1.1 10.4 1.4 11.2 3.5 1.4 3.6 2.5 2.8 5.4-4.1 2.9-6.8 2.7-9.4-.4-7.4-1.5.9-5.5.9-16.8 0-19.7-1.6-19-1.7-19.7 1.4zm-321.7 8.1c-.1.5-.2 1.9-.2 3.2-.2 2.2-1.8 3.2-12.2 7.8-6.6 2.9-12.5 5.1-13.2 4.9-2.4-1-1.3-4.5 2.2-7.2 3.5-2.6 4.4-4.7 2.5-5.9-1-.6-5.7 1.5-10.2 4.7l-2.7 1.9 1.9 3.7c3.4 6.6 7.9 17.1 8.6 19.7.3 1.4 1 2.7 1.4 3 .4.3 3.6-.5 6.9-1.7 5.1-1.8 6.1-2.6 5.9-4.3-.2-1.2-1-1.9-1.8-1.7-.8.2-3 .4-4.8.5-3.5.1-7.3-2.7-5.7-4.2.6-.5 6.4-3.2 13-6.1l12-5.2 1.6 2.1c2.4 2.9 4.3 2.7 3.5-.3-1.8-7.2-8.3-18.2-8.7-14.9zm305.8 26.9c-4 5.5-3.9 7.2.6 7 4.4-.2 4.6 2.3.7 7.8-3 4.1-3.4 4.4-5.7 3.3-1.6-.7-2.3-1.7-2-2.9.9-3.4-2.9-1.9-5.6 2.1-1.4 2.2-5.3 6.5-8.6 9.6-5.9 5.8-7.1 9-2.7 7.9 1.5-.4 3.1.5 5.9 3.4 3.7 3.8 3.7 3.9 1.8 5.6-1.9 1.7-2.2 1.7-7.3-.7-9.2-4.3-9-4.3-15.3 1.2-3.2 2.8-6.6 5.3-7.6 5.6-2.8.9-2.5 4.3.4 3.8 1.9-.4 3 .9 7.9 8.9 3.1 5.1 5.5 9.5 5.3 9.7-.2.2-5-3.1-10.7-7.2-8.9-6.5-10.5-7.4-11.7-6.2-1.5 1.5-1.5 1.9 1.9 22.2.4 2.3.3 4-.1 3.8-.4-.3-3-4.4-5.9-9.1-3.7-6.3-5-9.3-4.6-11 1-3.7-1-3.7-6.9 0-5.6 3.7-6.9 5.6-3.7 5.6 2.4 0 3.6 1.5 10.4 12.5 6.5 10.6 7 11.9 5.5 13.4-.9.9-.9 1.4.2 2 1.6 1 11.1-4.5 11.1-6.4 0-1.9-4.1-21.8-4.6-22.7-.3-.4-.1-.8.5-.8.5 0 1.3.5 1.7 1.1 1.2 2.1 16.6 12.9 18.2 12.9 2.2 0 11.2-5.7 11.2-7 0-.6-1.1-1-2.4-1-2.1 0-3.6-1.8-9-10.9-8.1-13.4-8.2-13.7-5.8-15 1.5-.8 3.4-.5 7.7 1 3.1 1.1 6.5 1.7 7.6 1.4 2.2-.7 2.2-.7.8 3.4-.9 2.6-.8 3.6.7 5.9 2.5 3.8 4.5 5.1 7.7 5.2 4.1 0 7.5-2.1 14.2-8.9 6.3-6.4 7.4-8.8 4-8.3-1.5.2-4.9-2.7-11.9-9.8-8.3-8.4-9.7-10.2-8.6-11.5 1.8-2.2 3.1-2 19.6 3.1l14.9 4.5 2.5-3c4.2-4.9 6-8.6 5-10.1-.7-1.2-1.2-1.1-2.9.4-1.9 1.7-2.1 1.5-9.5-8.3-8.6-11.5-9.8-13.5-9.4-15.8.6-3.4-2.2-2.2-5.5 2.3zm13.1 19.3c2.4 2.9 4.1 5.5 3.8 5.8-.6.6-13.4-3.6-14-4.6-.7-1.1 3.5-7.2 4.8-6.8.6.2 3 2.7 5.4 5.6zm-19 31c4 4.8 4.1 4.9 2.2 6.6-4.3 3.9-11.3.6-11.3-5.4 0-3.2 1.8-6.1 3.8-6.1.6 0 3 2.2 5.3 4.9zm-286-47.3c2.8 5.1-3.8 8.9-17.8 10.4-7.5.7-10.7.7-11.6-.1-2.7-2.2-2.6 1.9.2 6 2.8 4.4 5.4 5.4 5.4 2.1 0-1.4.9-2 3.5-2.5 1.9-.3 5.1-.7 7-1 1.9-.3 3.5-.3 3.5 0s-1.1 2.7-2.4 5.3c-2.8 5.5-5.1 7.9-6.1 6.2-1-1.7-2.5-1.1-2.5.9 0 1.1 1.1 3.2 2.4 4.8 1.2 1.5 2.8 3.8 3.5 5 1.6 3 4.1 3 4.1-.1 0-1.2 2-6.6 4.5-11.9 3.5-7.5 5.3-10.2 8.2-12.1 3.3-2.3 3.9-2.4 5.9-1.1 2.1 1.4 3.4 1.1 3.4-.7 0-.5-.5-.6-1.2-.2-.6.4-.8.3-.4-.4 1-1.6-6.6-12.2-8.7-12.2-1.4 0-1.6.4-.9 1.6zm18.2 24.3c0 .6.5 1.3 1 1.6 2.4 1.5.4 4.6-8.4 13.4-8.2 8.1-9.7 9.3-11 8.1-2.2-1.7-2-3.1.8-7.3 2.1-3 2.2-3.8 1.1-4.7-.8-.7-1.8-1-2.4-.8-1.1.4-8.1 8.7-8.1 9.7 0 1.4 6.6 7.1 7.4 6.4.4-.5.6-.3.4.3-.2.6 2.5 4.1 6 7.8l6.3 6.7 3.2-2c5.4-3.3 8.2-6.8 6.8-8.5-1-1.2-1.7-1.1-4.8.5-4.4 2.2-6.6 2.4-8.1.6-.9-1 1.2-3.6 8.8-11.2l9.9-9.8 2.5 1.7c2.3 1.5 2.7 1.5 3.2.1.8-1.9-10.2-13.5-12.8-13.5-1 0-1.8.4-1.8.9zm17.3 21.6c-1.3.9-2.8 3.3-3.4 5.4-1 3.4-.8 4.5 2.1 11 3.5 8 3.5 10.7.4 12.8-1.9 1.2-2.4 1.1-4.5-.6-2-1.6-2.4-2.8-2.2-6.4.2-5.5-1.7-6.8-4.6-3.1-2.7 3.4-3.7 6.7-2.2 7.2.6.2 2.8 1.9 4.7 3.7 6.6 6.2 13.3 6.9 18 1.8 3.3-3.5 3.1-7.9-.7-16.5-2.5-5.8-2.9-7.5-2-9.4 2.7-5.9 10.8.2 9.5 7.1-.3 1.6-.7 3.2-1 3.6-.4.7 2.6 2.9 4 2.9.7 0 4.1-6.6 5-9.8.6-1.8.3-2.2-1.3-2.2-1.1 0-2.6-.8-3.3-1.8-.7-.9-2.8-3-4.6-4.5-3.9-3.1-10.3-3.7-13.9-1.2zm21.8 26c-3.5 8-6.9 14.6-7.5 14.6-.6.1-1.7.1-2.3 0-.7-.1-1.3.5-1.3 1.4 0 1.9 10 6.7 11.3 5.5.5-.4.3-1.6-.3-2.7-1-1.6-.6-3.2 2.5-10.1 2.1-4.5 3.9-8.1 4.1-7.9.2.2 1.1 5.2 1.9 11.3.9 6 2.1 12.1 2.6 13.5 1.3 3.2 8.6 6.6 10.4 4.8.7-.8.6-1.3-.2-1.6-2.2-.8-1.5-3.7 4.1-15.9 4.6-10 5.8-11.9 7.5-11.7 3.6.4 2.4-2.5-1.9-4.7-4.1-2.1-8-2.6-8-1.1 0 .6.5 1.3 1 1.6 1.7 1 1.2 3.2-2.7 11.6-2.3 5.1-3.9 7.5-4.4 6.7-.4-.6-1.6-6.6-2.5-13.1-1.8-11.7-3.8-16.7-6.8-16.7-.6 0-4 6.5-7.5 14.5zm88-3.3c-2.2 10.2-7.2 14.8-19.1 17.9l-4.5 1.2 6 1.6c11 3.1 14.5 6.5 17.3 16.6l1.9 7 1.7-6c3.3-11.4 6.3-14.2 18.1-17.6l6-1.6-4.5-1.2c-9.6-2.5-14-5.2-16.6-10.3-1.3-2.6-2.4-5.3-2.4-6-.1-.7-.7-2.6-1.3-4.2l-1.3-3-1.3 5.6zm61.9-1.3c-4.7 2-6.3 4.5-3.3 5.3 1.2.4 3.3 4.5 6.6 13.2 4 10.4 4.6 13 3.6 14.2-2.5 3 .5 3.5 6.9 1.2 5.9-2.2 8.3-4.8 4.4-4.8-1.4 0-2.9-2.8-6.7-12.7-5.1-13.4-5.2-13.8-4-16.6.9-2.2-1.5-2.2-7.5.2zm-112.8 4.3c-.8.8-.7 1.4.4 2.3 1.4.9 1.1 2.6-2.2 14.4-2.9 10.4-4.1 13.5-5.6 13.9-3.7.9-1.4 3.6 4.7 5.4 6.3 1.8 8.9 1.2 6.5-1.6-1-1.3-.8-3.1 1-9.8 4.6-17.3 5-18.6 7-19.1 4.5-1.2 2.4-2.5-9.6-6.2-.6-.2-1.6.1-2.2.7zm97.4.8c-6.2 1.7-8.3 3.7-4.8 4.7 2 .5 2.9 3 7.8 21 1.4 5.2 1.4 6.6.4 7.8-2.4 2.9.2 3.5 6.5 1.7 6.1-1.8 8.4-4.5 4.7-5.4-1.5-.4-2.7-3.5-5.6-13.9-3.4-11.9-3.6-13.4-2.2-14.5 1.3-.9 1.4-1.3.4-2.1-.9-.7-3.2-.5-7.2.7z"/></svg>